<svg xmlns="http://www.w3.org/2000/svg" viewBox="0 0 1200 630">
  <defs>
    <linearGradient id="bg" x1="85" y1="40" x2="1110" y2="600" gradientUnits="userSpaceOnUse"><stop stop-color="#171128"/><stop offset="1" stop-color="#08080e"/></linearGradient>
    <radialGradient id="glow" cx="0" cy="0" r="1" gradientTransform="translate(931 199) rotate(135) scale(452 418)" gradientUnits="userSpaceOnUse"><stop stop-color="#168cff" stop-opacity=".48"/><stop offset="1" stop-color="#168cff" stop-opacity="0"/></radialGradient>
  </defs>
  <rect width="1200" height="630" rx="34" fill="url(#bg)"/>
  <rect width="1200" height="630" rx="34" fill="url(#glow)"/>
  <g opacity=".11" stroke="#fff"><path d="M0 90h1200M0 180h1200M0 270h1200M0 360h1200M0 450h1200M0 540h1200"/><path d="M100 0v630M200 0v630M300 0v630M400 0v630M500 0v630M600 0v630M700 0v630M800 0v630M900 0v630M1000 0v630M1100 0v630"/></g>
  <image href="/brand/logo-mark.png" x="88" y="78" width="86" height="86"/>
  <text x="195" y="137" fill="#fff" font-family="Inter,Arial,sans-serif" font-size="38" font-weight="700">OpenIMSDK Docs</text>
  <text x="88" y="285" fill="#fff" font-family="Inter,Arial,sans-serif" font-size="76" font-weight="750" letter-spacing="-3">Build instant messaging</text>
  <text x="88" y="375" fill="#fff" font-family="Inter,Arial,sans-serif" font-size="76" font-weight="750" letter-spacing="-3">with OpenIMSDK.</text>
  <text x="91" y="453" fill="#b8b4c8" font-family="Inter,Arial,sans-serif" font-size="28">OpenIMClientSDK · OpenIMServer Platform API · Guides</text>
  <rect x="89" y="507" width="213" height="54" rx="12" fill="#168cff"/>
  <text x="121" y="542" fill="#fff" font-family="Inter,Arial,sans-serif" font-size="21" font-weight="650">docs.openim.io</text>
</svg>
