<svg width="16" height="15" viewBox="0 0 16 15" fill="none" xmlns="http://www.w3.org/2000/svg">
<g clip-path="url(#clip0_1314_3055)">
<path d="M8.07279 11.8339C8.15098 11.8339 8.23054 11.8294 8.31063 11.8205C9.07872 11.7341 9.73095 11.2308 9.97168 10.5372C9.98985 10.4853 9.96362 10.4297 9.91063 10.4069C9.85825 10.384 9.79486 10.4038 9.76522 10.4503C9.76242 10.4548 9.45725 10.9169 8.2692 11.0673C8.09135 11.0897 7.91829 11.1014 7.75425 11.1014C6.9219 11.1009 6.55098 10.8068 6.54758 10.8041C6.50569 10.7692 6.44176 10.7683 6.39883 10.8023C6.35547 10.8363 6.34549 10.8954 6.37506 10.9407C6.7374 11.4914 7.38761 11.8339 8.07279 11.8339ZM14.4609 4.93116C14.4504 4.93116 14.4409 4.93296 14.4309 4.93296C13.7348 2.1076 11.0749 0 7.88586 0C4.60909 0 1.88819 2.22399 1.28512 5.16628C0.698751 5.26521 0.252441 5.74839 0.252441 6.33272V8.6714C0.252441 9.32687 0.813115 9.85839 1.50539 9.85839C1.89589 9.85839 2.24057 9.68551 2.46986 9.42C3.02389 10.7938 4.15177 11.9014 5.57916 12.4858C5.58257 12.4788 5.60958 12.4296 5.64211 12.3903C5.66458 12.3631 5.68977 12.3408 5.71137 12.3408C5.73375 12.3408 5.7543 12.3484 5.77187 12.36C5.44152 12.1295 4.24823 10.9442 3.98975 9.29014C3.87635 8.56212 4.458 7.84745 5.13541 7.72924C6.22291 7.5394 7.30472 7.32314 8.39222 7.13689C9.08353 7.01868 9.55597 6.66316 9.84486 6.07121C9.91256 5.93283 10.0103 5.65305 10.0552 5.24956C10.0671 5.18956 10.1195 5.14349 10.1868 5.14349C10.2316 5.14349 10.2698 5.16496 10.295 5.19587L10.325 5.17841C10.7536 5.76182 11.6037 7.0536 11.7257 8.41571C11.8659 9.973 11.7877 11.0396 10.5163 12.1308C10.5148 12.1322 10.5128 12.1339 10.511 12.1353C10.4933 12.1532 10.4828 12.1764 10.4828 12.202C10.4828 12.2355 10.5019 12.2642 10.5295 12.2817C10.54 12.2857 10.5505 12.2911 10.561 12.2951C10.5696 12.2969 10.5777 12.2996 10.5863 12.2996C10.5949 12.2996 10.6025 12.2969 10.6102 12.2951C10.6283 12.2862 10.6454 12.2759 10.6631 12.2669C11.9489 11.6028 12.9353 10.4938 13.3911 9.15988C13.5756 9.41687 13.8645 9.60182 14.2001 9.66633C13.6618 11.9615 11.4784 13.398 8.77319 13.616C8.61108 13.239 8.212 12.9713 7.74333 12.9713C7.13124 12.9713 6.63492 13.4257 6.63492 13.9859C6.63492 14.546 7.13115 15 7.74333 15C8.23685 15 8.65016 14.7028 8.79365 14.2944C11.925 14.0557 14.4352 12.3108 14.9592 9.5996C15.4221 9.4182 15.7472 8.99242 15.7472 8.49539V6.12901C15.7472 5.46762 15.1713 4.93116 14.4609 4.93116ZM13.3057 5.61091C12.489 3.53684 10.3727 2.0552 7.88306 2.0552C5.40384 2.0552 3.29512 3.52429 2.47082 5.58493C2.42982 5.53788 2.38171 5.49763 2.3345 5.45687C2.80116 2.9458 5.10637 1.03657 7.88586 1.03657C10.652 1.03657 12.9501 2.92702 13.432 5.42065C13.3844 5.48065 13.3405 5.54327 13.3057 5.61091ZM5.57934 12.4858C5.57925 12.4858 5.57925 12.4858 5.57916 12.4858C5.57865 12.4869 5.57865 12.487 5.57934 12.4858Z" fill="#FFFFFF"/>
</g>
<defs>
<clipPath id="clip0_1314_3055">
<rect width="16" height="15" fill="#3D5EFF"/>
</clipPath>
</defs>
</svg>
